<svg xmlns="http://www.w3.org/2000/svg" xmlns:xlink="http://www.w3.org/1999/xlink" version="1.1" x="0px" y="0px" viewBox="0 0 32 40" enable-background="new 0 0 32 32" xml:space="preserve"><g><path d="M16,22v5h13v-5c0-1.1046143-0.8954468-2-2-2h-9C16.8954468,20,16,20.8953857,16,22z"/><path d="M15,24h-5v-7h3v1c0,0.5522461,0.4472656,1,1,1h4c0.5527344,0,1-0.4477539,1-1v-1h4c0.5527344,0,1-0.4477539,1-1V7   c0-0.5522461-0.4472656-1-1-1h-6v2h5v7h-3v-1c0-0.5522461-0.4472656-1-1-1h-4c-0.5527344,0-1,0.4477539-1,1v1H9   c-0.5527344,0-1,0.4477539-1,1v9c0,0.5522461,0.4472656,1,1,1h6V24z"/><path d="M16,4c0-1.1046143-0.8954468-2-2-2H5C3.8954468,2,3,2.8953857,3,4v5h13V4z"/><path d="M17,10H2c0,1.1045532,0.8954468,2,2,2h11C16.1045532,12,17,11.1045532,17,10z"/><path d="M15,28c0,1.1045532,0.8954468,2,2,2h11c1.1045532,0,2-0.8954468,2-2H15z"/></g><text x="0" y="47" fill="#000000" font-size="5px" font-weight="bold" font-family="'Helvetica Neue', Helvetica, Arial-Unicode, Arial, Sans-serif">Created by M. Oki Orlando</text><text x="0" y="52" fill="#000000" font-size="5px" font-weight="bold" font-family="'Helvetica Neue', Helvetica, Arial-Unicode, Arial, Sans-serif">from the Noun Project</text></svg>