<?xml version="1.0" standalone="no"?>
<!DOCTYPE svg PUBLIC "-//W3C//DTD SVG 20010904//EN"
 "http://www.w3.org/TR/2001/REC-SVG-20010904/DTD/svg10.dtd">
<svg version="1.0" xmlns="http://www.w3.org/2000/svg"
 width="1280.000000pt" height="1093.000000pt" viewBox="0 0 1280.000000 1093.000000"
 preserveAspectRatio="xMidYMid meet">
<metadata>
Created by potrace 1.15, written by Peter Selinger 2001-2017
</metadata>
<g transform="translate(0.000000,1093.000000) scale(0.100000,-0.100000)"
fill="#000000" stroke="none">
<path d="M10830 10136 c-45 -16 -50 -19 -157 -99 l-91 -69 13 -33 14 -32 -52
-7 c-84 -10 -469 -21 -769 -21 -255 0 -277 -1 -282 -17 -5 -20 -65 -25 -82 -8
-10 10 -132 13 -307 6 -60 -2 -92 -7 -97 -16 -10 -16 -223 -15 -253 2 -25 13
-205 31 -220 21 -15 -10 -513 -16 -1287 -16 -992 0 -3600 13 -4015 19 -373 6
-392 7 -430 28 -38 20 -55 21 -325 23 -157 1 -311 2 -342 2 -56 1 -59 2 -88
43 -16 22 -30 50 -31 62 0 14 -19 33 -62 61 l-62 40 -450 -1 c-247 -1 -481 -4
-518 -8 -64 -7 -69 -10 -91 -44 -13 -21 -56 -75 -95 -122 -86 -104 -131 -184
-131 -236 0 -22 -5 -59 -11 -83 -7 -33 -6 -55 5 -90 8 -25 19 -70 25 -99 7
-34 25 -71 50 -105 21 -29 42 -63 46 -76 4 -13 32 -49 62 -78 70 -70 113 -138
113 -179 0 -18 4 -55 10 -81 5 -26 17 -127 25 -223 9 -96 22 -233 29 -305 7
-71 11 -135 9 -142 -3 -7 -29 -23 -58 -36 -55 -26 -94 -68 -121 -133 -15 -36
-17 -233 -17 -2579 1 -2053 3 -2548 14 -2583 17 -59 79 -127 134 -147 24 -10
46 -23 49 -30 2 -7 -2 -73 -10 -146 -8 -74 -21 -210 -30 -304 -25 -275 -38
-348 -73 -398 -16 -24 -37 -49 -46 -57 -29 -24 -43 -63 -64 -182 -12 -64 -33
-154 -47 -199 -16 -52 -23 -92 -19 -108 3 -14 8 -38 10 -52 1 -14 11 -41 20
-60 21 -40 129 -149 165 -166 28 -14 296 -127 350 -148 48 -19 399 -21 421 -2
8 6 27 28 42 48 58 81 191 150 322 168 45 7 97 5 177 -5 93 -12 163 -12 393
-3 154 5 349 8 432 4 129 -5 152 -4 147 8 -7 19 58 32 85 18 11 -6 77 -11 148
-12 253 -1 242 -2 262 22 12 15 22 19 32 13 8 -5 52 -7 99 -6 58 2 96 -1 120
-11 51 -21 196 -32 225 -17 17 9 76 10 244 3 121 -4 238 -4 258 0 68 15 1378
13 1402 -2 15 -9 171 6 194 19 24 14 184 10 223 -5 49 -20 191 -30 209 -15 12
10 57 11 188 6 107 -5 242 -3 357 4 102 7 284 13 405 13 437 0 913 -8 921 -16
12 -12 174 3 214 20 23 9 67 13 126 12 51 -1 98 2 104 6 8 5 18 1 26 -10 11
-14 31 -19 101 -22 159 -6 288 -3 315 8 32 13 78 5 78 -14 0 -9 88 -12 393
-12 215 0 418 4 451 9 39 6 93 4 162 -5 94 -12 104 -15 104 -33 0 -22 91 -108
132 -125 12 -6 110 -20 216 -32 168 -18 206 -20 285 -10 161 20 533 158 570
212 23 31 21 86 -4 205 -19 88 -21 122 -16 310 4 163 2 219 -9 250 -8 21 -21
95 -29 164 -27 234 -56 535 -58 605 l-2 69 56 27 c63 31 101 73 124 138 13 39
15 336 15 2573 0 1759 -3 2542 -11 2571 -17 69 -58 119 -124 153 l-60 31 2 69
c3 69 32 371 58 601 10 91 20 134 40 172 14 28 32 91 41 138 8 48 28 139 45
202 46 178 60 374 32 447 -3 8 -31 27 -62 40 -66 30 -100 59 -152 136 -31 46
-47 59 -77 67 -62 15 -761 22 -802 7z m-5511 -740 c51 -2 95 -6 97 -8 6 -6 6
-486 0 -496 -3 -5 -68 -15 -144 -22 -111 -10 -170 -10 -288 -1 -81 7 -152 15
-156 17 -4 3 -8 119 -8 259 0 194 3 254 13 258 14 5 349 1 486 -7z m3174 -58
c4 -40 10 -165 13 -277 l7 -204 -244 7 c-228 6 -245 8 -261 26 -23 29 -30 98
-26 300 l3 175 130 1 c197 0 345 13 352 30 11 31 21 11 26 -58z m251 57 c35
-23 178 -45 295 -45 l104 0 -6 -237 c-5 -162 -10 -239 -18 -244 -16 -9 -411
-23 -443 -15 -14 3 -30 14 -35 24 -5 9 -12 133 -16 275 l-7 257 51 0 c29 0 62
-7 75 -15z m-4046 -250 c-3 -218 -5 -257 -19 -270 -14 -14 -49 -17 -215 -21
-110 -3 -218 -6 -242 -8 -36 -3 -43 -1 -47 18 -2 11 1 134 8 271 l12 250 150
5 c83 3 196 7 253 8 l103 2 -3 -255z m-1268 -14 c0 -137 -3 -263 -6 -280 l-6
-31 -97 1 c-53 0 -166 6 -251 12 l-155 12 -1 228 0 227 218 0 218 0 20 40 c13
26 27 40 40 40 19 0 20 -8 20 -249z m630 16 c-1 -256 -4 -283 -33 -299 -23
-12 -426 -5 -459 7 -17 7 -18 29 -18 264 l0 256 256 0 255 -1 -1 -227z m1711
218 c122 -2 223 -6 224 -7 6 -7 22 -483 17 -496 -8 -21 -439 -8 -462 14 -12
12 -16 58 -18 260 -2 169 0 244 7 240 6 -4 110 -9 232 -11z m1408 0 c16 -9 13
-408 -3 -460 l-12 -40 -94 -7 c-52 -3 -156 -7 -230 -8 l-135 -2 2 169 c1 92 5
209 9 260 l6 92 61 4 c88 6 383 0 396 -8z m594 5 l97 0 0 -227 c0 -126 -4
-233 -8 -239 -20 -31 -524 -41 -559 -12 -10 8 -13 69 -13 243 0 127 3 235 8
240 4 4 90 5 192 1 102 -3 229 -6 283 -6z m-1176 -252 c-5 -224 -7 -254 -23
-265 -13 -9 -66 -12 -213 -9 -108 1 -203 6 -212 10 -25 11 -29 49 -29 287 l0
219 183 3 c100 1 209 3 241 5 l59 2 -6 -252z m-4473 136 c3 -26 6 -122 6 -213
0 -177 -4 -191 -47 -191 l-23 0 0 225 0 225 29 0 c26 0 29 -3 35 -46z m676
-168 c0 -118 -3 -221 -6 -230 -5 -14 -36 -16 -239 -16 -227 0 -280 6 -297 33
-4 7 -8 105 -8 220 l0 207 275 0 275 0 0 -214z m6497 167 c11 -32 20 -42 41
-46 25 -5 358 9 408 16 21 4 21 0 26 -177 3 -100 4 -183 2 -185 -6 -7 -381
-32 -444 -29 l-65 3 -3 233 c-2 179 0 233 10 230 6 -2 18 -23 25 -45z m1135
-20 c2 -5 2 -87 0 -185 -4 -170 -5 -176 -25 -182 -12 -4 -130 -10 -263 -13
-181 -4 -243 -3 -248 6 -13 21 -7 364 7 373 16 10 525 10 529 1z m193 -185 l3
-188 -23 0 c-43 0 -48 19 -48 194 0 90 4 169 8 175 4 7 18 11 31 9 l25 -3 4
-187z m-2751 -390 c3 -68 23 -804 45 -1635 l38 -1513 -38 -1512 c-22 -832 -42
-1569 -45 -1637 l-6 -123 -167 2 c-91 2 -221 -1 -288 -5 -117 -8 -123 -7 -123
11 0 10 -18 747 -39 1636 l-39 1618 39 1617 c21 890 39 1627 39 1637 0 18 8
19 148 15 81 -3 167 -2 192 2 25 3 88 7 141 7 l97 2 6 -122z m-2446 32 c1 -41
16 -655 34 -1365 41 -1632 40 -2025 0 -3644 -18 -690 -32 -1299 -32 -1352 l0
-98 -308 0 -308 0 -17 687 c-10 378 -29 1101 -43 1607 l-24 920 41 1650 c23
908 42 1655 44 1660 1 6 112 10 306 10 l304 0 3 -75z m3080 65 c2 -2 12 -587
22 -1301 10 -715 21 -1443 25 -1619 5 -318 -38 -3556 -49 -3573 -8 -13 -493
-16 -501 -3 -3 6 -1 431 5 944 6 512 15 1241 19 1619 5 379 5 997 0 1375 -4
379 -13 1108 -19 1620 -6 513 -8 938 -4 944 5 8 75 9 253 4 135 -4 247 -9 249
-10z m-3823 -259 c-3 -127 -12 -879 -20 -1671 -14 -1347 -14 -1541 3 -3000 11
-858 17 -1566 15 -1573 -4 -9 -64 -12 -254 -12 l-248 0 -5 33 c-3 17 -8 295
-11 617 -3 322 -7 664 -10 760 -19 681 -27 1905 -16 2688 6 466 13 921 16
1012 3 91 7 433 10 760 4 327 8 605 11 617 4 23 5 23 247 25 198 3 244 0 254
-11 10 -11 11 -71 8 -245z m1329 192 c3 -40 8 -341 11 -668 4 -327 12 -1020
20 -1540 12 -813 12 -1091 -1 -1995 -8 -577 -18 -1314 -22 -1637 -4 -322 -9
-588 -12 -591 -3 -3 -107 -8 -231 -12 -189 -6 -227 -5 -231 7 -3 7 -2 365 3
793 23 2076 27 2598 24 2695 -3 58 -9 668 -15 1355 -5 688 -13 1331 -16 1430
-3 99 -3 192 1 208 l7 27 228 0 228 0 6 -72z m1149 -438 c-1 -278 -7 -1010
-13 -1627 -10 -874 -10 -1372 0 -2246 6 -617 12 -1349 13 -1627 l2 -505 -230
0 -230 0 -6 320 c-4 176 -15 921 -24 1655 -18 1380 -16 1765 21 4122 l7 408
166 3 c91 1 195 3 231 2 l65 0 -2 -505z m3477 -418 c0 -510 5 -1109 11 -1332
6 -223 11 -668 11 -990 0 -322 -5 -767 -11 -990 -6 -223 -11 -822 -11 -1332
l0 -928 -35 0 c-27 0 -38 5 -45 23 -8 21 -18 425 -40 1602 -6 303 -15 656 -20
785 -13 300 -13 1373 0 1680 6 129 14 483 20 785 22 1220 32 1580 42 1602 8
15 19 21 44 21 l34 0 0 -926z m-8519 902 c14 -17 12 44 44 -1489 8 -418 20
-982 26 -1252 7 -337 7 -649 0 -985 -6 -271 -18 -837 -26 -1258 -25 -1222 -32
-1464 -40 -1483 -6 -14 -16 -17 -43 -15 l-35 3 2 680 c1 374 -4 952 -10 1285
-6 333 -13 839 -15 1125 -3 286 -5 525 -5 530 -1 6 5 170 11 365 7 201 13 820
14 1427 l1 1072 25 4 c14 2 28 5 31 6 4 0 13 -6 20 -15z m7654 -6 c3 -13 2
-742 -2 -1620 -5 -879 -5 -2317 0 -3195 4 -879 5 -1609 2 -1622 l-6 -23 -247
7 c-136 4 -250 10 -255 14 -4 4 -6 1456 -5 3227 l3 3219 150 5 c346 13 354 13
360 -12z m620 11 c3 -4 13 -31 21 -60 12 -46 12 -273 4 -1611 -7 -1055 -7
-2063 -1 -3120 11 -1691 12 -1655 -40 -1669 -13 -4 -125 -7 -249 -8 l-226 -1
-17 67 c-16 64 -17 262 -17 3178 0 3230 -1 3126 35 3223 4 11 51 13 244 10
132 -1 242 -6 246 -9z m-7599 -56 c17 -55 18 -230 17 -3188 -1 -2685 -3 -3137
-15 -3180 l-14 -50 -249 0 -249 0 -14 55 c-12 47 -13 289 -5 1617 4 859 4
2266 -1 3126 -7 1320 -6 1571 6 1613 l14 49 89 6 c50 3 161 6 247 7 l157 2 17
-57z m562 41 l72 -6 0 -3219 c0 -2567 -3 -3220 -12 -3224 -31 -10 -490 -19
-496 -10 -8 11 -12 6455 -5 6468 5 8 299 2 441 -9z m3212 -1 c13 -12 14 -459
2 -1643 -11 -1060 -12 -1557 -1 -2735 15 -1806 15 -2054 -5 -2073 -12 -12 -46
-13 -217 -6 l-203 9 -9 40 c-5 23 -3 597 4 1390 17 1691 16 1921 0 3590 -11
1057 -11 1370 -2 1404 l12 43 207 -7 c114 -4 209 -9 212 -12z m2563 -295 c14
-980 14 -4839 0 -5840 l-5 -318 -226 0 c-196 0 -228 2 -244 17 -17 15 -18 42
-18 437 1 232 7 952 14 1601 12 991 12 1371 0 2370 -17 1545 -18 2017 -2 2033
9 9 77 12 244 12 l232 0 5 -312z m-5090 202 c4 -52 1 -783 -8 -1625 -15 -1419
-15 -1637 0 -3005 17 -1464 15 -1709 -10 -1730 -8 -7 -91 -9 -241 -8 l-229 3
-8 1270 c-4 699 -4 2153 -1 3233 l6 1962 242 -2 241 -3 8 -95z m5537 -6455
c107 -8 195 -15 195 -15 0 0 0 -128 0 -285 l0 -285 -260 0 -260 0 5 297 c3
164 7 299 8 301 5 6 132 1 312 -13z m-6156 -27 c3 -13 6 -145 6 -295 l0 -271
-112 -7 c-62 -3 -178 -5 -258 -3 l-145 3 -1 287 0 287 85 6 c47 3 97 7 111 9
14 2 89 4 166 5 139 1 142 1 148 -21z m5687 6 c19 -5 27 -107 29 -386 l1 -178
-261 0 -260 0 0 73 c0 41 3 163 7 272 6 178 8 200 26 218 18 18 29 19 231 12
116 -3 218 -8 227 -11z m1295 0 c21 -5 21 -12 28 -279 4 -151 5 -279 1 -285
-4 -6 -101 -10 -275 -10 l-269 0 -3 281 c-2 154 1 288 6 296 8 14 36 15 250 9
132 -4 250 -9 262 -12z m-7618 -6 c9 -9 12 -88 12 -295 l0 -283 -275 0 -275 0
0 273 c0 153 4 279 10 287 7 12 44 16 182 21 315 10 333 10 346 -3z m1236 1
c32 -15 35 -44 38 -340 l3 -226 -210 -6 c-115 -3 -231 -3 -257 0 l-48 6 0 273
c0 207 3 275 13 281 6 4 82 10 167 13 85 4 181 7 212 8 31 1 68 -3 82 -9z
m2553 -12 c13 -13 16 -61 21 -285 l5 -269 -99 -5 c-54 -2 -164 -2 -243 1
l-143 6 1 250 c2 266 4 293 29 313 25 19 408 10 429 -11z m1929 -174 c-3 -109
-9 -238 -13 -286 l-6 -89 -251 4 -251 4 0 245 c0 198 3 250 15 274 l15 30 115
6 c63 3 175 6 249 7 l134 2 -7 -197z m2120 -95 l3 -288 -35 0 -34 0 -2 173
c-3 248 2 380 14 395 6 7 20 12 32 10 20 -3 20 -10 22 -290z m-8512 266 c18
-17 21 -177 9 -427 l-6 -137 -29 0 -28 0 0 283 c0 156 3 287 7 290 11 12 31 8
47 -9z m2448 6 l109 0 15 -35 c11 -27 14 -88 14 -280 l0 -245 -255 0 -255 0 0
88 c0 48 -5 172 -10 275 -6 104 -7 194 -3 199 4 7 51 9 141 4 74 -3 184 -6
244 -6z m1451 3 c3 -5 0 -132 -7 -283 l-11 -275 -233 0 -233 0 3 261 c2 200 6
265 16 277 11 12 36 17 105 20 198 7 356 7 360 0z m1058 -3 l87 0 13 -32 c11
-25 14 -93 14 -278 l0 -245 -231 -3 -231 -2 -6 112 c-4 62 -10 191 -13 287
l-7 174 144 -6 c79 -4 183 -7 230 -7z m789 -26 c7 -7 9 -94 8 -260 l-3 -249
-273 -8 c-151 -5 -280 -6 -288 -3 -19 7 -21 500 -1 513 6 4 77 15 157 23 113
12 172 13 267 5 67 -5 127 -15 133 -21z m-2557 10 c85 -6 109 -10 115 -23 4
-9 5 -127 2 -263 l-5 -248 -295 -2 -295 -3 -3 263 c-1 144 -1 262 0 263 22 7
295 26 328 23 25 -2 94 -7 153 -10z"/>
</g>
</svg>
