<?xml version="1.0" encoding="UTF-8" standalone="no"?>
<!-- Created with Inkscape (http://www.inkscape.org/) -->

<svg
   version="1.1"
   id="svg2"
   width="4800"
   height="4541.52"
   viewBox="0 0 4800 4541.52"
   sodipodi:docname="vecteezy_shopping-cart-icon-style_5566619.eps"
   xmlns:inkscape="http://www.inkscape.org/namespaces/inkscape"
   xmlns:sodipodi="http://sodipodi.sourceforge.net/DTD/sodipodi-0.dtd"
   xmlns="http://www.w3.org/2000/svg"
   xmlns:svg="http://www.w3.org/2000/svg">
  <defs
     id="defs6" />
  <sodipodi:namedview
     id="namedview4"
     pagecolor="#ffffff"
     bordercolor="#000000"
     borderopacity="0.25"
     inkscape:showpageshadow="2"
     inkscape:pageopacity="0.0"
     inkscape:pagecheckerboard="0"
     inkscape:deskcolor="#d1d1d1" />
  <g
     id="g8"
     inkscape:groupmode="layer"
     inkscape:label="ink_ext_XXXXXX"
     transform="matrix(1.3333333,0,0,-1.3333333,0,4541.52)">
    <g
       id="g10"
       transform="scale(0.1)">
      <path
         d="M 31690.2,8811.5 H 11374.8 c -603.1,0 -1126.8,409.1 -1271.9,995.3 L 6337,25014.2 c -103.8,418.2 -7.57,829 269.54,1158.4 277.43,330.1 667.62,494 1096.5,463 L 34783,24687.3 c 386.3,-27.7 727,-214.4 957.8,-525.8 231.5,-311.4 311.3,-691.3 225.8,-1069.5 L 32967.5,9832.9 C 32832.2,9231.3 32306.4,8811.4 31690.2,8811.5 Z M 7602.94,25700.6 c -111.84,0 -203.16,-44 -278.17,-132.9 -81.29,-97 -106.8,-204.6 -76.62,-327.7 L 11015.3,10032.6 c 42.5,-171.2 183.3,-282.1 359.3,-282.1 l 20315.6,0.1 c 176.8,0 322.7,116.5 361.8,289.3 l 2999.2,13259.2 c 25.3,113.3 4.9,209.4 -64.5,303.2 -69.1,92.9 -154.9,140.2 -271.4,148.3 L 7635.62,25698.9 h -0.28 c -11.09,0.9 -22,1.7 -32.4,1.7 v 0"
         style="fill:#100f0d;fill-opacity:1;fill-rule:evenodd;stroke:none"
         id="path12" />
      <path
         d="m 34071.3,16368.3 c -10.6,0 -22.1,0.8 -32.6,1.6 L 8377.33,18132.4 c -259.32,17.9 -454.25,242 -437.1,500.5 18.2,258.4 243.74,455.7 501.34,436.1 L 34103.3,17306.6 c 258.2,-18 453.8,-242.2 435.9,-500.6 -17,-247.8 -223.4,-437.7 -467.9,-437.7"
         style="fill:#100f0d;fill-opacity:1;fill-rule:evenodd;stroke:none"
         id="path14" />
      <path
         d="m 14768.4,8811.5 c -228.9,0 -429.7,167.9 -464,401 l -2457.5,16551.7 c -38.5,256.8 139.1,495.6 395.1,533.9 256,38.4 495.6,-139.4 534,-395.3 L 15233.1,9350.3 c 38.2,-256.8 -138.7,-495.7 -395.5,-534 -22.6,-3.3 -46.5,-4.9 -69.2,-4.8"
         style="fill:#100f0d;fill-opacity:1;fill-rule:evenodd;stroke:none"
         id="path16" />
      <path
         d="m 19022.2,8811.5 c -248.7,0 -456.7,195.6 -469,446.7 l -798,16126.9 c -12.9,258.4 186.6,479.3 445.9,492.4 261.7,12.2 479.3,-187.5 491.5,-445.9 L 19491,9304.7 c 12.9,-259.3 -187,-479.4 -445.4,-492.5 -8,-0.7 -16.3,-0.8 -23.4,-0.7"
         style="fill:#100f0d;fill-opacity:1;fill-rule:evenodd;stroke:none"
         id="path18" />
      <path
         d="m 23275.7,8811.5 c -7.3,0 -15.5,-0.1 -23.7,0.7 -258.4,13.1 -458.2,233.2 -445.9,492.4 l 777.8,15707.2 c 13.2,259.2 232.2,459.7 492.3,445.9 259.3,-13.1 458.1,-233.2 445.9,-492.4 L 23744.5,9258.2 c -12.1,-251.1 -220.2,-446.8 -468.8,-446.7"
         style="fill:#100f0d;fill-opacity:1;fill-rule:evenodd;stroke:none"
         id="path20" />
      <path
         d="m 27529.6,8811.5 c -22.8,0 -46.8,1.5 -69.6,4.8 -256.6,38.3 -433.6,277.2 -395.4,534 l 2270.5,15293.8 c 38.6,256.8 277.9,433.7 533,395.4 256.8,-37.5 433.7,-276.4 395.4,-533.2 L 27993.2,9212.5 c -34.1,-233.1 -234.8,-401.1 -463.6,-401"
         style="fill:#100f0d;fill-opacity:1;fill-rule:evenodd;stroke:none"
         id="path22" />
      <path
         d="M 30962.4,3625.2 H 12207.9 c -905.8,0 -1700.6,441 -2180.8,1208.9 -479.87,767.9 -527.37,1676 -129.55,2489.6 l 1055.75,2163.5 c 113.3,233.2 394.4,329.4 627.6,216 233.3,-114 330.1,-395.3 216,-628.5 L 10741.3,6912.1 c -255.7,-524.2 -226.7,-1085.9 82.3,-1580.7 309.1,-494.9 800.5,-767.1 1384.1,-767.1 h 18754.7 c 259,0 468.4,-210.3 468.4,-469.6 0,-259.2 -209.4,-469.5 -468.4,-469.5"
         style="fill:#100f0d;fill-opacity:1;fill-rule:evenodd;stroke:none"
         id="path24" />
      <path
         d="m 15516,0 c -1214.6,0 -2202.8,988.797 -2202.8,2203.5 0,1214.6 988,2203.4 2202.6,2203.4 1215.6,0.1 2203.5,-988.8 2203.5,-2203.4 C 17719.6,988.797 16731.3,0 15516,0 Z m 0,3467.8 c -697,0 -1263.7,-567.3 -1263.7,-1264.3 0,-697 566.5,-1264.402 1263.5,-1264.402 697.2,0 1264.4,567.402 1264.4,1264.402 0.3,697 -567.5,1264.3 -1264.2,1264.3 v 0"
         style="fill:#100f0d;fill-opacity:1;fill-rule:evenodd;stroke:none"
         id="path26" />
      <path
         d="m 27652.4,0 c -1215.3,0 -2203.5,988.797 -2203.5,2203.5 0.3,1214.6 988.1,2203.4 2203.5,2203.4 C 28867,4407 29855,3418.1 29855,2203.5 29855.3,988.797 28867,0 27652.4,0 Z m 0,3467.8 c -697.7,0 -1264.4,-567.3 -1264.4,-1264.3 0.3,-697 566.5,-1264.402 1264.4,-1264.402 697,0 1263.5,567.402 1263.5,1264.402 0.3,697 -566.5,1264.3 -1263.5,1264.3 v 0"
         style="fill:#100f0d;fill-opacity:1;fill-rule:evenodd;stroke:none"
         id="path28" />
      <path
         d="m 6792.59,25073.7 c -259.31,0 -469.73,209.5 -469.73,469.6 l 0.19,3851.8 -5075.5,1359.7 c -895.839,239.7 -1429.913,1163.3 -1190.2336,2058.3 239.7656,896 1162.4636,1430.7 2058.3536,1191 L 8366.7,32328.9 c 767.09,-167.1 1322.93,-856.8 1322.93,-1644.2 l 0.27,-4628.7 c 0,-259.2 -210.56,-469.5 -469.82,-469.5 -259.04,0 -469.56,210.3 -469.56,469.5 l 0.28,4628.7 c 0,350.5 -248.87,657 -590.5,727.9 -8.92,2.5 -17.1,4.1 -25.23,6.6 l -6262.08,1677.6 c -395.47,105.2 -802.44,-130.4 -908.369,-525.8 -105.93,-395.3 130.419,-802.9 525.799,-908.9 l 5423.63,-1453.5 c 205.43,-54.6 347.91,-240.5 347.91,-453.2 l 0.19,-4212.1 c 0,-260.1 -209.63,-469.6 -469.56,-469.6"
         style="fill:#100f0d;fill-opacity:1;fill-rule:evenodd;stroke:none"
         id="path30" />
    </g>
  </g>
</svg>
