<svg xmlns="http://www.w3.org/2000/svg" xmlns:xlink="http://www.w3.org/1999/xlink" version="1.1" x="0px" y="0px" viewBox="0 0 94 117.5" enable-background="new 0 0 94 94" xml:space="preserve"><g><path d="M92,79.12785h-8.77441c-0.41406,0-0.75,0.33594-0.75,0.75s0.33594,0.75,0.75,0.75H92c0.41406,0,0.75-0.33594,0.75-0.75   S92.41406,79.12785,92,79.12785z"/><path d="M10.77344,79.12785H2c-0.41406,0-0.75,0.33594-0.75,0.75s0.33594,0.75,0.75,0.75h8.77344c0.41406,0,0.75-0.33594,0.75-0.75   S11.1875,79.12785,10.77344,79.12785z"/><path d="M79.65137,79.12785H46.7522c2.07422-1.47253,3.43433-3.88824,3.43433-6.62012c0-1.94348-0.69824-3.78705-1.93506-5.2431   l28.05615-11.62506c0.95313-0.40186,1.40625-1.50439,1.01172-2.45801L76.01758,50.038   c-0.0498-0.11896-0.11182-0.22986-0.18335-0.33307l2.05347-0.85052c1.54003-0.63764,2.26927-2.39901,1.63184-3.93896   l-9.87109-23.84473c-0.64602-1.55852-2.41769-2.26306-3.93945-1.63135c-6.66845,2.7621-14.55731,6.02997-23.84082,9.87549   c-1.53916,0.63728-2.26953,2.39871-1.63281,3.93897l10.4502,25.24091l-2.12988,0.88165   c-0.15527,0.06738-0.39453,0.04004-0.49609-0.20557L29.90918,15.34122c-0.60547-1.45996-2.22656-2.31592-3.76074-1.83447   c-1.66782,0.55562-2.53878,2.37536-1.85547,4.02832l4.1543,10.03064l-3.76172-1.55792   c0.09252-1.13061-0.55868-2.06986-1.49316-2.45709l-5.55664-2.30176c-1.22852-0.50879-2.69727,0.11084-3.19824,1.32471   c-0.51876,1.24946,0.07294,2.68121,1.32422,3.19971l5.55566,2.30176c0.93481,0.38671,2.06128,0.18255,2.79443-0.6814   l5.14697,2.13177l7.97998,19.26813l-2.81787,1.17065c-1.43555,0.58984-2.18457,2.15381-1.74316,3.63672l3.84668,12.99133   c-1.63843,1.52155-2.57813,3.64441-2.57813,5.91541c0,2.73187,1.36011,5.14758,3.43433,6.62012H14.34766   c-0.41406,0-0.75,0.33594-0.75,0.75s0.33594,0.75,0.75,0.75h65.30371c0.41406,0,0.75-0.33594,0.75-0.75   S80.06543,79.12785,79.65137,79.12785z M21.8916,26.68937l-5.55566-2.30176c-0.48489-0.20103-0.71437-0.75472-0.5127-1.23975   c0.20123-0.48898,0.75801-0.71296,1.23828-0.51318l5.55664,2.30176c0.48267,0.20038,0.71289,0.75476,0.51416,1.23724   c-0.00049,0.00079-0.00122,0.00122-0.00146,0.00201c-0.00024,0.00067,0,0.0014,0,0.0014   C22.92184,26.67452,22.36099,26.88462,21.8916,26.68937z M58.85645,23.90146l1.43066,3.45343   c0.08066,0.19419-0.01207,0.41814-0.20703,0.49854l-8.28223,3.43066c-0.19336,0.08154-0.42188-0.01758-0.49902-0.20703   l-1.43042-3.45251L58.85645,23.90146z M41.62207,32.6796c-0.32063-0.77131,0.04477-1.65806,0.82031-1.97901l6.04004-2.50195   l1.42969,3.45264c0.40384,0.97326,1.51088,1.41232,2.45996,1.01856l8.28223-3.43067   c0.96415-0.39903,1.41615-1.50183,1.01855-2.45947l-1.42969-3.45258l6.04004-2.50201   c0.768-0.31932,1.65537,0.03946,1.97852,0.81982l9.87207,23.84522c0.31934,0.7731-0.04488,1.65761-0.82031,1.97852   c-34.591,14.3235-22.66069,9.38338-25.24146,10.45203L41.62207,32.6796z M26.61035,14.934   c0.74316-0.23486,1.5957,0.21484,1.91211,0.98096l18.15039,43.83008c0.3877,0.93555,1.54102,1.40479,2.46094,1.01563   c9.50306-3.93398,16.12712-6.67616,24.99609-10.34766c0.2002-0.08203,0.4248,0.01514,0.50293,0.20166l1.30078,3.14063   c0.08008,0.19434-0.0127,0.41943-0.2041,0.5C45.37397,66.81932,47.32103,66.06597,47.0459,66.09611   c-0.45667-0.35327-0.95914-0.65836-1.37695-0.86328L25.67969,16.96085C25.3225,16.10295,25.79231,15.20668,26.61035,14.934z    M34.99414,51.3505l2.81641-1.17041l5.96191,14.39014c-2.10811-0.45586-4.32408,0.01833-5.97559,1.03809l-3.68164-12.43408   C33.89453,52.43156,34.27051,51.64787,34.99414,51.3505z M35.44629,72.50773c0-3.53712,2.71633-6.3215,6.12012-6.57678   c3.93043-0.30363,7.12012,2.78796,7.12012,6.57678c0,3.65039-2.96973,6.62012-6.62012,6.62012S35.44629,76.15812,35.44629,72.50773   z"/><path d="M42.06543,68.99601c-1.9375,0-3.51367,1.57617-3.51367,3.51318s1.57617,3.51318,3.51367,3.51318   c1.93652,0,3.5127-1.57617,3.5127-3.51318S44.00195,68.99601,42.06543,68.99601z M42.06543,74.52238   c-1.11035,0-2.01367-0.90332-2.01367-2.01318s0.90332-2.01318,2.01367-2.01318c1.10938,0,2.0127,0.90332,2.0127,2.01318   S43.1748,74.52238,42.06543,74.52238z"/><path d="M26,67.8671h4.84668c0.41406,0,0.75-0.33594,0.75-0.75s-0.33594-0.75-0.75-0.75H26c-0.41406,0-0.75,0.33594-0.75,0.75   S25.58594,67.8671,26,67.8671z"/><path d="M24.42285,67.8671c0.41406,0,0.75-0.33594,0.75-0.75s-0.33594-0.75-0.75-0.75h-2c-0.41406,0-0.75,0.33594-0.75,0.75   s0.33594,0.75,0.75,0.75H24.42285z"/><path d="M19.25,73.1171c0,0.41406,0.33594,0.75,0.75,0.75h4.84668c0.41406,0,0.75-0.33594,0.75-0.75s-0.33594-0.75-0.75-0.75H20   C19.58594,72.3671,19.25,72.70304,19.25,73.1171z"/><path d="M18.42285,73.8671c0.41406,0,0.75-0.33594,0.75-0.75s-0.33594-0.75-0.75-0.75h-2c-0.41406,0-0.75,0.33594-0.75,0.75   s0.33594,0.75,0.75,0.75H18.42285z"/></g><text x="0" y="109" fill="#000000" font-size="5px" font-weight="bold" font-family="'Helvetica Neue', Helvetica, Arial-Unicode, Arial, Sans-serif">Created by Vectors Point</text><text x="0" y="114" fill="#000000" font-size="5px" font-weight="bold" font-family="'Helvetica Neue', Helvetica, Arial-Unicode, Arial, Sans-serif">from the Noun Project</text></svg>