<?xml version="1.0" encoding="UTF-8" standalone="no"?>
<!-- Created with Inkscape (http://www.inkscape.org/) -->

<svg
   version="1.1"
   id="svg2"
   width="460.95999"
   height="491.42667"
   viewBox="0 0 460.95999 491.42667"
   sodipodi:docname="25_Warehouse.eps"
   xmlns:inkscape="http://www.inkscape.org/namespaces/inkscape"
   xmlns:sodipodi="http://sodipodi.sourceforge.net/DTD/sodipodi-0.dtd"
   xmlns="http://www.w3.org/2000/svg"
   xmlns:svg="http://www.w3.org/2000/svg">
  <defs
     id="defs6" />
  <sodipodi:namedview
     id="namedview4"
     pagecolor="#ffffff"
     bordercolor="#000000"
     borderopacity="0.25"
     inkscape:showpageshadow="2"
     inkscape:pageopacity="0.0"
     inkscape:pagecheckerboard="0"
     inkscape:deskcolor="#d1d1d1" />
  <g
     id="g8"
     inkscape:groupmode="layer"
     inkscape:label="ink_ext_XXXXXX"
     transform="matrix(1.3333333,0,0,-1.3333333,0,491.42667)">
    <g
       id="g10"
       transform="scale(0.1)">
      <path
         d="m 16.5273,2503.27 c -17.390581,-12.01 -21.75777,-35.85 -9.74996,-53.25 12.01176,-17.39 35.85936,-21.75 53.24996,-9.75 L 1728.04,3600.75 3397.31,2452.84 c 17.49,-11.92 41.32,-7.43 53.26,10.05 11.92,17.48 7.43,41.32 -10.05,53.25 L 1751.77,3677.38 c -12.9,10.2 -31.46,11.29 -45.68,1.43 l 0.07,-0.1 L 16.5273,2503.27"
         style="fill:#000000;fill-opacity:1;fill-rule:nonzero;stroke:none"
         id="path12" />
      <path
         d="m 2875.96,79.2969 393.67,-2.4102 V 2406.15 L 1728.52,3466.54 187.566,2393.84 V 76.7969 H 581.234 V 2145.42 c 0,21.21 17.2,38.4 38.407,38.4 H 2837.56 c 21.21,0 38.4,-17.19 38.4,-38.4 V 79.2969 Z M 3307.79,0.148438 2840.7,3.01953 c -1.03,-0.08984 -2.07,-0.13672 -3.14,-0.13672 -21.2,0 -38.4,17.19529 -38.4,38.40629 V 2107.02 H 658.035 V 38.3984 C 658.035,17.1875 640.844,0 619.641,0 H 149.172 C 127.965,0 110.766,17.1875 110.766,38.3984 V 2413.85 c 0.011,12.13 5.757,24.06 16.464,31.52 l 21.942,-31.52 -21.902,31.5 1577.63,1098.23 c 12.85,9.89 31.11,10.88 45.19,1.19 l -0.02,-0.14 1577.07,-1085.13 c 11.52,-6.62 19.29,-19.06 19.29,-33.31 V 38.3984 v 0 -0.2343 C 3346.3,16.9531 3329,-0.128906 3307.79,0 v 0.148438"
         style="fill:#000000;fill-opacity:1;fill-rule:nonzero;stroke:none"
         id="path14" />
      <path
         d="m 1728.6,3070.99 c 92.26,0 175.79,-37.4 236.25,-97.86 60.47,-60.47 97.86,-144 97.86,-236.26 0,-92.26 -37.4,-175.8 -97.86,-236.26 -60.46,-60.46 -143.99,-97.86 -236.25,-97.86 -92.27,0 -175.8,37.4 -236.26,97.86 -60.46,60.46 -97.87,144 -97.87,236.26 0,92.26 37.41,175.79 97.87,236.26 60.46,60.46 143.99,97.86 236.26,97.86 z m 181.96,-152.17 c -46.56,46.57 -110.9,75.37 -181.96,75.37 -71.06,0 -135.4,-28.8 -181.96,-75.37 -46.56,-46.55 -75.37,-110.89 -75.37,-181.95 0,-71.07 28.81,-135.39 75.37,-181.96 46.56,-46.56 110.9,-75.36 181.96,-75.36 71.06,0 135.4,28.8 181.96,75.36 46.56,46.57 75.36,110.89 75.36,181.96 0,71.06 -28.8,135.4 -75.36,181.95"
         style="fill:#000000;fill-opacity:1;fill-rule:nonzero;stroke:none"
         id="path16" />
      <path
         d="m 767.5,816.105 h 777.71 V 0 H 729.098 V 38.3984 777.707 816.105 H 767.5 Z m 700.91,-76.796 H 805.898 V 76.7969 H 1468.41 V 739.309"
         style="fill:#000000;fill-opacity:1;fill-rule:nonzero;stroke:none"
         id="path18" />
      <path
         d="m 1654.67,816.105 h 777.71 V 0 h -816.11 v 38.3984 739.3086 38.398 h 38.4 z m 700.91,-76.796 H 1693.07 V 76.7969 h 662.51 V 739.309"
         style="fill:#000000;fill-opacity:1;fill-rule:nonzero;stroke:none"
         id="path20" />
      <path
         d="M 805.898,816.105 H 1468.41 V 1478.61 H 805.898 V 816.105 Z M 1506.81,739.309 H 729.098 v 816.101 h 816.112 v -38.4 -739.303 -38.398 h -38.4"
         style="fill:#000000;fill-opacity:1;fill-rule:nonzero;stroke:none"
         id="path22" />
    </g>
  </g>
</svg>
