<svg xmlns:dc="http://purl.org/dc/elements/1.1/" xmlns:cc="http://creativecommons.org/ns#" xmlns:rdf="http://www.w3.org/1999/02/22-rdf-syntax-ns#" xmlns:svg="http://www.w3.org/2000/svg" xmlns="http://www.w3.org/2000/svg" xmlns:sodipodi="http://sodipodi.sourceforge.net/DTD/sodipodi-0.dtd" xmlns:inkscape="http://www.inkscape.org/namespaces/inkscape" viewBox="0 0 12.7 15.875" version="1.1" x="0px" y="0px"><g transform="translate(0,-284.29998)"><path style="" d="m 6.3381409,285.7563 a 0.52916666,0.52916666 0 0 0 -0.2053167,0.046 l -5.60361033,2.51302 v 1.17306 H 1.2824826 v 6.05544 h 1.1038417 v -5.69319 h 7.9266517 v 5.69319 h 1.1049 v -6.05544 h 0.753004 v -1.17306 L 6.5664763,285.8023 a 0.52916666,0.52916666 0 0 0 -0.2283354,-0.046 z m -0.97155,1.54874 a 0.14185238,0.14185238 0 0 1 0.00529,0 h 1.9560645 a 0.14185238,0.14185238 0 0 1 0,0.2837 H 5.3718826 a 0.14187959,0.14187959 0 0 1 -0.00529,-0.2837 z m -0.6455833,0.68626 h 3.2572853 a 0.141855,0.141855 0 0 1 0,0.28371 H 4.7210076 a 0.141855,0.141855 0 0 1 0,-0.28371 z" fill="#000000" stroke="none"/><path style="" d="m 7.8068,295.54379 h 1.5996 a 0.14001127,0.14001127 0 0 0 0.14,-0.14001 v -1.60477 A 0.14001127,0.14001127 0 0 0 9.4064,293.659 H 7.8068 a 0.14001127,0.14001127 0 0 0 -0.14,0.14001 v 1.60477 a 0.14001127,0.14001127 0 0 0 0.14,0.14001 z" fill="#000000" stroke="none"/><path style="" d="m 4.8932,295.54379 a 0.14001127,0.14001127 0 0 0 0.14,-0.14001 v -1.60477 A 0.14001127,0.14001127 0 0 0 4.8932,293.659 H 3.2929 a 0.14001127,0.14001127 0 0 0 -0.14,0.14001 v 1.60477 a 0.14001127,0.14001127 0 0 0 0.14,0.14001 z" fill="#000000" stroke="none"/><path style="" d="m 5.4098,293.79901 v 1.60477 a 0.14001127,0.14001127 0 0 0 0.14,0.14001 h 1.5996 a 0.14001127,0.14001127 0 0 0 0.14,-0.14001 v -1.60477 A 0.14001127,0.14001127 0 0 0 7.1494,293.659 H 5.5498 a 0.14001127,0.14001127 0 0 0 -0.14,0.14001 z" fill="#000000" stroke="none"/><path style="" d="m 6.021,293.23899 a 0.14001127,0.14001127 0 0 0 0.14,-0.14 v -1.60478 A 0.14001127,0.14001127 0 0 0 6.021,291.3542 H 4.4214 a 0.14001127,0.14001127 0 0 0 -0.14,0.14001 v 1.60478 a 0.14001127,0.14001127 0 0 0 0.14,0.14 z" fill="#000000" stroke="none"/><path style="" d="m 6.6783,293.23899 h 1.5996 a 0.14001127,0.14001127 0 0 0 0.14,-0.14 v -1.60478 a 0.14001127,0.14001127 0 0 0 -0.14,-0.14001 H 6.6783 a 0.14001127,0.14001127 0 0 0 -0.14,0.14001 v 1.60478 a 0.14001127,0.14001127 0 0 0 0.14,0.14 z" fill="#000000" stroke="none"/></g><text x="0" y="27.7" fill="#000000" font-size="5px" font-weight="bold" font-family="'Helvetica Neue', Helvetica, Arial-Unicode, Arial, Sans-serif">Created by Phạm Thanh Lộc</text><text x="0" y="32.7" fill="#000000" font-size="5px" font-weight="bold" font-family="'Helvetica Neue', Helvetica, Arial-Unicode, Arial, Sans-serif">from the Noun Project</text></svg>