<svg id="Layer_1" data-name="Layer 1" xmlns="http://www.w3.org/2000/svg" viewBox="0 0 46.63 29.83"><defs><style>.cls-1{fill:#231f20;}</style></defs><title>step5-icon</title><path class="cls-1" d="M27.54,26.31a9.25,9.25,0,0,0,4.66-1.26,0.5,0.5,0,1,0-.5-0.87,8.26,8.26,0,0,1-4.16,1.13c-5.09,0-9.24-4.72-9.24-10.52a0.5,0.5,0,1,0-1,0C17.3,21.15,21.89,26.31,27.54,26.31Z"/><path class="cls-1" d="M27.54,21.38c3.24,0,5.88-3,5.88-6.59S30.78,8.2,27.54,8.2s-5.88,3-5.88,6.59S24.3,21.38,27.54,21.38Zm4.88-6.59a5.84,5.84,0,0,1-2.17,4.64,6,6,0,0,1-1.53-4,5.84,5.84,0,0,1,2.18-4.64A6,6,0,0,1,32.42,14.79Z"/><path class="cls-1" d="M45.56,9.38L44,9.53a15.85,15.85,0,0,0-3.43-5.67l-0.13-.14-0.37-.36Q39.68,3,39.27,2.64l-0.12-.1-0.5-.39a10.26,10.26,0,0,0-1.75-1.08,7.4,7.4,0,0,0-3.2-1h-0.1l-0.44,0C32.8,0,32.45,0,32.09,0h0l-4.56.11h0c-7.18,0-13,6.59-13,14.68a15.94,15.94,0,0,0,2,7.84C14.21,22,11.43,21,11.4,21l-0.1,0L0,22,1.92,22.8c13.31,5.29,20.76,6.62,24,6.94,0.82,0.08,1.31.09,1.51,0.09h0.09c0.62,0,14.65,0,18.17-9.35a16.18,16.18,0,0,0,0-10.75Zm-1.83,4.89c0.35,5.05-1.53,9.08-5.13,11.28a13.46,13.46,0,0,0,2.59-3.78,17.44,17.44,0,0,0,1.5-8.7,17.61,17.61,0,0,0-.44-2.34l0.87-.09A18.27,18.27,0,0,1,43.74,14.27Zm-2.49-3.44a16.53,16.53,0,0,1,.45,2.34c0.32,2.88-.43,11-7,13.91a15.15,15.15,0,0,0,5.92-12.29,16.34,16.34,0,0,0-.47-3.84ZM32.91,28.15l0,0.07-0.25,0Zm-5.37-27a10.61,10.61,0,0,1,2.13.23,9.6,9.6,0,0,1,1,.26h0C36.11,3.4,38.6,9.55,39,10.53a15.31,15.31,0,0,1,.61,4.26A13.93,13.93,0,0,1,33,27a10.77,10.77,0,0,1-5.42,1.47c-6.63,0-12-6.14-12-13.68S20.91,1.11,27.54,1.11Zm17.23,19a10.65,10.65,0,0,1-3.92,4.93c2.49-2.27,4.23-5.83,3.88-10.86a19.26,19.26,0,0,0-.61-3.66l0.21,0v0l0.57-.05A15.41,15.41,0,0,1,44.77,20.13Z"/></svg>