<svg xmlns="http://www.w3.org/2000/svg" xmlns:xlink="http://www.w3.org/1999/xlink" version="1.1" x="0px" y="0px" viewBox="0 0 33 41.25" enable-background="new 0 0 33 33" xml:space="preserve"><path d="M11.651,23.5h0.488h2.738h12.497l5.023-10.652c0.062-0.131,0.103-0.272,0.103-0.426c0-0.557-0.451-1.008-1.007-1.008H23.95  c-0.031,0.717-0.167,1.393-0.371,2.014h6.324l-0.767,1.623h-6.258c-0.197,0.359-0.396,0.691-0.58,0.957  c-0.15,0.219-0.455,0.637-0.83,1.058h6.717l-0.648,1.372H12.412l-0.508-1.372h6.476c0.02-0.255,0.098-0.507,0.178-0.745  c0.105-0.314,0.249-0.758,0.347-1.27h-7.747l-0.601-1.623h8.418c-0.017-0.127-0.034-0.254-0.063-0.383  c-0.126-0.559-0.344-1.074-0.652-1.541l-0.574,0.573c-0.325,0.324-0.732,0.503-1.147,0.503c-0.68,0-1.242-0.457-1.449-1.166H9.811  L7.946,6.377H0.5v2.015h6.044l4.859,13.119c-1.633,0.129-2.927,1.484-2.927,3.15c0,1.618,1.222,2.943,2.789,3.137  c0.164,1.395,1.337,2.482,2.777,2.482c1.427,0,2.592-1.066,2.773-2.444h4.634c0.181,1.378,1.346,2.444,2.772,2.444  s2.592-1.066,2.773-2.444h0.675c0.556,0,1.007-0.45,1.007-1.007s-0.451-1.008-1.007-1.008h-1.182  c-0.511-0.701-1.332-1.16-2.266-1.16c-0.934,0-1.755,0.459-2.266,1.16h-5.647c-0.511-0.701-1.332-1.16-2.266-1.16  s-1.755,0.459-2.266,1.16h-0.124c-0.641,0-1.161-0.52-1.161-1.16S11.011,23.5,11.651,23.5z M26.587,20.451l-0.489,1.035h-11.22  h-1.336l-0.383-1.035H26.587z M24.221,26.48c0.548,0,0.991,0.443,0.991,0.991c0,0.547-0.443,0.991-0.991,0.991  c-0.547,0-0.991-0.444-0.991-0.991C23.229,26.923,23.673,26.48,24.221,26.48z M14.042,26.48c0.547,0,0.991,0.443,0.991,0.991  c0,0.547-0.444,0.991-0.991,0.991s-0.991-0.444-0.991-0.991C13.05,26.923,13.494,26.48,14.042,26.48z"/><path d="M22.409,4.835L19.248,3.99c-0.407-0.109-1.072-0.289-1.479-0.396l-3.161-0.848c-0.407-0.109-0.649,0.135-0.541,0.541  l0.847,3.162c0.109,0.406,0.287,1.07,0.396,1.478l0.847,3.161c0.109,0.406,0.442,0.495,0.739,0.197l1.434-1.434  c0.619,0.593,1.358,1.547,1.675,2.947c0.505,2.242-0.642,4.243-0.507,4.395c0.287,0.32,4.578-3.857,3.009-7.945  c-0.346-0.9-0.833-1.631-1.338-2.234l1.437-1.438C22.904,5.277,22.816,4.945,22.409,4.835z"/><text x="0" y="48" fill="#000000" font-size="5px" font-weight="bold" font-family="'Helvetica Neue', Helvetica, Arial-Unicode, Arial, Sans-serif">Created by Thuy Nguyen</text><text x="0" y="53" fill="#000000" font-size="5px" font-weight="bold" font-family="'Helvetica Neue', Helvetica, Arial-Unicode, Arial, Sans-serif">from the Noun Project</text></svg>