<?xml version='1.0' encoding='iso-8859-1'?>
<!DOCTYPE svg PUBLIC '-//W3C//DTD SVG 1.1//EN' 'http://www.w3.org/Graphics/SVG/1.1/DTD/svg11.dtd'>
<!-- Uploaded to: SVG Repo, www.svgrepo.com, Generator: SVG Repo Mixer Tools -->
<svg fill="#000000" version="1.1" xmlns="http://www.w3.org/2000/svg" viewBox="0 0 512 512" xmlns:xlink="http://www.w3.org/1999/xlink" enable-background="new 0 0 512 512">
  <g>
    <rect width="64" y="16" height="288"/>
    <rect width="32" x="480" y="16" height="288"/>
    <rect width="32" x="80" y="16" height="288"/>
    <path d="M421.398,360.147C438.172,334.848,448,304.563,448,272c0-24.84-5.852-48.283-16-69.281V16h-48v128.305   c-9.867-7.438-20.547-13.832-32-18.852V16h-64v96c-10.953,0-21.656,1.117-32,3.225V16H144v186.721   c-10.141,20.998-16,44.439-16,69.279c0,88.227,71.781,160,160,160c32.563,0,62.844-9.83,88.148-26.605l81.227,81.23   c6.25,6.25,14.438,9.375,22.625,9.375s16.375-3.125,22.625-9.375c12.5-12.492,12.5-32.758,0-45.25L421.398,360.147z M192,272   c0-52.938,43.063-96,96-96s96,43.063,96,96s-43.063,96-96,96S192,324.938,192,272z"/>
  </g>
</svg>