<?xml version="1.0" encoding="iso-8859-1"?>
<!-- Uploaded to: SVG Repo, www.svgrepo.com, Generator: SVG Repo Mixer Tools -->
<svg fill="#000000" version="1.1" id="Layer_1" xmlns="http://www.w3.org/2000/svg" xmlns:xlink="http://www.w3.org/1999/xlink" 
	 viewBox="0 0 512 512" xml:space="preserve">
<g>
	<g>
		<rect y="44.522" width="33.391" height="356.174"/>
	</g>
</g>
<g>
	<g>
		<rect x="478.609" y="44.522" width="33.391" height="289.391"/>
	</g>
</g>
<g>
	<g>
		<rect x="77.913" y="44.522" width="33.391" height="289.391"/>
	</g>
</g>
<g>
	<g>
		<rect x="77.913" y="367.304" width="33.391" height="33.391"/>
	</g>
</g>
<g>
	<g>
		<rect x="155.826" y="44.522" width="33.391" height="133.565"/>
	</g>
</g>
<g>
	<g>
		<rect x="155.826" y="367.304" width="33.391" height="33.391"/>
	</g>
</g>
<g>
	<g>
		<rect x="244.87" y="44.522" width="33.391" height="66.783"/>
	</g>
</g>
<g>
	<g>
		<rect x="322.783" y="44.522" width="33.391" height="66.783"/>
	</g>
</g>
<g>
	<g>
		<rect x="400.696" y="44.522" width="33.391" height="66.783"/>
	</g>
</g>
<g>
	<g>
		<rect x="411.826" y="211.478" width="33.391" height="155.826"/>
	</g>
</g>
<g>
	<g>
		<rect x="256" y="367.304" width="155.826" height="33.391"/>
	</g>
</g>
<g>
	<g>
		<rect x="256" y="144.696" width="122.435" height="33.391"/>
	</g>
</g>
<g>
	<g>
		<rect x="189.217" y="211.478" width="33.391" height="122.435"/>
	</g>
</g>
<g>
	<g>
		<rect x="222.609" y="178.087" width="33.391" height="33.391"/>
	</g>
</g>
<g>
	<g>
		<rect x="378.435" y="178.087" width="33.391" height="33.391"/>
	</g>
</g>
<g>
	<g>
		<rect x="411.826" y="400.696" width="33.391" height="33.391"/>
	</g>
</g>
<g>
	<g>
		<rect x="222.609" y="333.913" width="33.391" height="33.391"/>
	</g>
</g>
<g>
	<g>
		<rect x="445.217" y="367.304" width="33.391" height="33.391"/>
	</g>
</g>
<g>
	<g>
		<polygon points="478.609,400.696 478.609,434.087 445.217,434.087 445.217,467.478 512,467.478 512,400.696 		"/>
	</g>
</g>
<g>
	<g>
		<rect x="256" y="211.478" width="122.435" height="122.435"/>
	</g>
</g>
</svg>